<svg width="20" height="20" viewBox="0 0 20 20" fill="none" xmlns="http://www.w3.org/2000/svg">
<path fill-rule="evenodd" clip-rule="evenodd" d="M1.91699 10.2043C1.91699 6.12117 5.22713 2.81104 9.3103 2.81104C10.4039 2.81104 11.4407 3.04814 12.3733 3.47328C12.6246 3.58782 12.9211 3.47698 13.0357 3.22572C13.1502 2.97445 13.0394 2.6779 12.7881 2.56336C11.7279 2.08005 10.5498 1.81104 9.3103 1.81104C4.67484 1.81104 0.916992 5.56889 0.916992 10.2043C0.916992 14.8398 4.67484 18.5977 9.3103 18.5977C13.9458 18.5977 17.7036 14.8398 17.7036 10.2043C17.7036 9.83079 17.6792 9.46269 17.6318 9.10161C17.5958 8.82782 17.3447 8.63501 17.0709 8.67096C16.7971 8.70692 16.6043 8.95801 16.6403 9.23181C16.682 9.54984 16.7036 9.87445 16.7036 10.2043C16.7036 14.2875 13.3935 17.5977 9.3103 17.5977C5.22713 17.5977 1.91699 14.2875 1.91699 10.2043ZM12.2452 8.13812C12.2452 7.68855 11.8808 7.3241 11.4312 7.3241C10.9816 7.3241 10.6172 7.68855 10.6172 8.13812C10.6172 8.5877 10.9816 8.95215 11.4312 8.95215C11.8808 8.95215 12.2452 8.5877 12.2452 8.13812ZM7.19 7.32414C7.63957 7.32414 8.00403 7.68859 8.00403 8.13816C8.00403 8.58774 7.63957 8.95219 7.19 8.95219C6.74043 8.95219 6.37598 8.58774 6.37598 8.13816C6.37598 7.68859 6.74043 7.32414 7.19 7.32414ZM6.99909 11.1019C6.95408 10.8295 6.69673 10.6451 6.42428 10.6901C6.15183 10.7351 5.96745 10.9925 6.01246 11.2649C6.15491 12.1272 6.53424 12.7902 7.11466 13.2454C7.68596 13.6934 8.40717 13.9052 9.17934 13.9589L9.19666 13.9601H9.21403C10.0433 13.9601 10.7848 13.7525 11.3583 13.2822C11.9351 12.8093 12.2853 12.1171 12.4165 11.259C12.4583 10.9861 12.2708 10.7309 11.9979 10.6892C11.7249 10.6474 11.4698 10.8349 11.428 11.1078C11.3252 11.7799 11.0692 12.2261 10.7243 12.509C10.3791 12.792 9.88908 12.9572 9.23133 12.96C8.59741 12.9135 8.09525 12.7436 7.73176 12.4585C7.37409 12.178 7.10645 11.7518 6.99909 11.1019ZM15.4971 2.58346C15.4971 2.30731 15.7209 2.08346 15.9971 2.08346C16.2732 2.08346 16.4971 2.30731 16.4971 2.58346V4.41679H18.3304C18.6065 4.41679 18.8304 4.64065 18.8304 4.91679C18.8304 5.19293 18.6065 5.41679 18.3304 5.41679H16.4971V7.41679C16.4971 7.69293 16.2732 7.91679 15.9971 7.91679C15.7209 7.91679 15.4971 7.69293 15.4971 7.41679V5.41679H13.4971C13.2209 5.41679 12.9971 5.19293 12.9971 4.91679C12.9971 4.64065 13.2209 4.41679 13.4971 4.41679H15.4971V2.58346Z" fill="#181818"/>
</svg>
