<svg width="24" height="24" viewBox="0 0 24 24" fill="none" xmlns="http://www.w3.org/2000/svg">
<path fill-rule="evenodd" clip-rule="evenodd" d="M2.29961 12.2448C2.29961 7.34501 6.27177 3.37285 11.1716 3.37285C12.4839 3.37285 13.7281 3.65738 14.8472 4.16755C15.1487 4.305 15.5046 4.17199 15.642 3.87047C15.7795 3.56895 15.6465 3.21309 15.345 3.07565C14.0727 2.49567 12.659 2.17285 11.1716 2.17285C5.60903 2.17285 1.09961 6.68227 1.09961 12.2448C1.09961 17.8074 5.60903 22.3168 11.1716 22.3168C16.7341 22.3168 21.2436 17.8074 21.2436 12.2448C21.2436 11.7966 21.2142 11.3548 21.1573 10.9215C21.1142 10.593 20.8129 10.3616 20.4843 10.4048C20.1558 10.4479 19.9244 10.7492 19.9676 11.0778C20.0177 11.4594 20.0436 11.8489 20.0436 12.2448C20.0436 17.1446 16.0714 21.1168 11.1716 21.1168C6.27177 21.1168 2.29961 17.1446 2.29961 12.2448ZM14.6939 9.76541C14.6939 9.22592 14.2566 8.78857 13.7171 8.78857C13.1776 8.78857 12.7402 9.22592 12.7402 9.76541C12.7402 10.3049 13.1776 10.7422 13.7171 10.7422C14.2566 10.7422 14.6939 10.3049 14.6939 9.76541ZM8.62722 8.78857C9.16671 8.78857 9.60406 9.22592 9.60406 9.76541C9.60406 10.3049 9.16671 10.7422 8.62722 10.7422C8.08774 10.7422 7.65039 10.3049 7.65039 9.76541C7.65039 9.22592 8.08774 8.78857 8.62722 8.78857ZM8.39812 13.3219C8.34412 12.995 8.0353 12.7737 7.70836 12.8278C7.38142 12.8818 7.16016 13.1906 7.21417 13.5175C7.38511 14.5523 7.84031 15.3479 8.53682 15.8941C9.22237 16.4317 10.0878 16.6858 11.0144 16.7503L11.0352 16.7517H11.0561C12.0512 16.7517 12.941 16.5026 13.6292 15.9383C14.3213 15.3708 14.7416 14.5402 14.8991 13.5104C14.9492 13.1829 14.7242 12.8767 14.3967 12.8266C14.0691 12.7765 13.7629 13.0015 13.7128 13.329C13.5895 14.1355 13.2822 14.6709 12.8683 15.0104C12.4542 15.35 11.8661 15.5483 11.0768 15.5517C10.3161 15.4959 9.71352 15.2919 9.27734 14.9498C8.84813 14.6132 8.52696 14.1018 8.39812 13.3219ZM18.5957 3.09976C18.5957 2.76839 18.8643 2.49976 19.1957 2.49976C19.5271 2.49976 19.7957 2.76839 19.7957 3.09976V5.29976H21.9957C22.3271 5.29976 22.5957 5.56838 22.5957 5.89976C22.5957 6.23113 22.3271 6.49976 21.9957 6.49976H19.7957V8.89976C19.7957 9.23113 19.5271 9.49976 19.1957 9.49976C18.8643 9.49976 18.5957 9.23113 18.5957 8.89976V6.49976H16.1957C15.8643 6.49976 15.5957 6.23113 15.5957 5.89976C15.5957 5.56838 15.8643 5.29976 16.1957 5.29976H18.5957V3.09976Z" fill="#181818"/>
</svg>
