<svg width="122" height="40" viewBox="0 0 122 40" fill="none" xmlns="http://www.w3.org/2000/svg">
<rect x="1" y="1" width="120" height="38" rx="5" fill="white"/>
<rect x="1" y="1" width="120" height="38" rx="5" stroke="#9935FF" stroke-width="2"/>
<path d="M55.1269 13.8281C55.1269 17.6641 53.2284 19.9141 48.6425 20.9844L47.9394 19.4688C49.9081 19.0391 51.1816 18.4062 51.9706 17.6172L48.2831 17.875L48.0019 16.3906L52.8378 16.2266C52.9237 15.9531 52.9862 15.6641 53.0175 15.375H48.7206V13.8281H55.1269ZM50.205 22.4844V20.9531H59.6581V24.7969H52.1894V25.7188H59.9706V27.2812H50.2206V23.3594H57.6894V22.4844H50.205ZM55.1581 17.8906V16.2656H57.6737V13.2188H59.6581V20.4219H57.6737V17.8906H55.1581ZM73.3262 13.2188V27.4688H71.3419V19.9688H69.045V18.3438H71.3419V13.2188H73.3262ZM61.8106 16.0156V14.4062H68.2481V19.7344H63.8262V22.5156C65.7872 22.5 67.4434 22.4297 69.2794 22.1094L69.4356 23.7344C67.3262 24.0859 65.3966 24.1641 63.0137 24.1562H61.8419V18.1562H66.3106V16.0156H61.8106Z" fill="#861DEE"/>
</svg>
