<svg width="24" height="24" viewBox="0 0 24 24" fill="none" xmlns="http://www.w3.org/2000/svg">
<path fill-rule="evenodd" clip-rule="evenodd" d="M10.7748 5.2C10.4849 5.2 10.2498 5.43505 10.2498 5.725V6.17212H13.2165V5.725C13.2165 5.43505 12.9814 5.2 12.6915 5.2H10.7748ZM9.0498 5.725V6.17212H4.65C4.29101 6.17212 4 6.46313 4 6.82212C4 7.1811 4.29101 7.47212 4.65 7.47212H5.7168V17.5998C5.7168 18.8517 6.73162 19.8665 7.98346 19.8665H15.3446C16.5964 19.8665 17.6112 18.8517 17.6112 17.5998V7.47212H18.8167C19.1757 7.47212 19.4667 7.1811 19.4667 6.82212C19.4667 6.46313 19.1757 6.17212 18.8167 6.17212H14.4165V5.725C14.4165 4.77231 13.6442 4 12.6915 4H10.7748C9.82211 4 9.0498 4.77231 9.0498 5.725ZM16.4112 7.47212H6.9168V17.5998C6.9168 18.1889 7.39436 18.6665 7.98346 18.6665H15.3446C15.9337 18.6665 16.4112 18.1889 16.4112 17.5998V7.47212ZM9.83281 10.2665C9.83281 9.93513 9.56418 9.6665 9.23281 9.6665C8.90144 9.6665 8.63281 9.93513 8.63281 10.2665V16.2386C8.63281 16.57 8.90144 16.8386 9.23281 16.8386C9.56418 16.8386 9.83281 16.57 9.83281 16.2386V10.2665ZM11.7328 9.6665C12.0642 9.6665 12.3328 9.93513 12.3328 10.2665V16.2386C12.3328 16.57 12.0642 16.8386 11.7328 16.8386C11.4014 16.8386 11.1328 16.57 11.1328 16.2386V10.2665C11.1328 9.93513 11.4014 9.6665 11.7328 9.6665ZM14.8328 10.2665C14.8328 9.93513 14.5642 9.6665 14.2328 9.6665C13.9014 9.6665 13.6328 9.93513 13.6328 10.2665V16.2386C13.6328 16.57 13.9014 16.8386 14.2328 16.8386C14.5642 16.8386 14.8328 16.57 14.8328 16.2386V10.2665Z" fill="#555555"/>
</svg>
