<svg width="107" height="30" viewBox="0 0 107 30" fill="none" xmlns="http://www.w3.org/2000/svg">
<path d="M14.5825 27.7879C15.9381 29.4711 18.6241 29.0413 19.379 27.0204L27.6371 4.91401C28.4687 2.68791 26.2822 0.521143 24.043 1.35239L1.81478 9.60423C-0.218153 10.3589 -0.644312 13.0283 1.05383 14.3707L5.35903 17.774C6.02828 18.303 6.97442 18.3108 7.65237 17.7928L18.0723 9.83119C18.3706 9.60326 18.7929 9.63049 19.059 9.89484C19.3251 10.1592 19.3525 10.5786 19.1231 10.8749L11.1101 21.222C10.5875 21.8968 10.5965 22.8389 11.1319 23.5036L14.5825 27.7879Z" fill="#A64EFF"/>
<path d="M44.4923 22L41.5765 16.7076H40.7576V22H37.3425V7.98015H43.0743C44.1794 7.98015 45.118 8.1732 45.8903 8.55932C46.6758 8.94543 47.2616 9.47799 47.6477 10.157C48.0338 10.8227 48.2269 11.5683 48.2269 12.3938C48.2269 13.3258 47.9606 14.1579 47.428 14.8902C46.9088 15.6225 46.1366 16.1418 45.1114 16.448L48.3467 22H44.4923ZM40.7576 14.2911H42.8746C43.5004 14.2911 43.9664 14.138 44.2726 13.8317C44.5921 13.5255 44.7519 13.0928 44.7519 12.5336C44.7519 12.001 44.5921 11.5816 44.2726 11.2754C43.9664 10.9692 43.5004 10.8161 42.8746 10.8161H40.7576V14.2911ZM55.4434 22.1598C54.3516 22.1598 53.3664 21.9268 52.4876 21.4608C51.6222 20.9948 50.9365 20.3291 50.4306 19.4636C49.938 18.5982 49.6917 17.5863 49.6917 16.428C49.6917 15.283 49.9446 14.2778 50.4506 13.4123C50.9565 12.5336 51.6489 11.8612 52.5276 11.3952C53.4063 10.9292 54.3916 10.6962 55.4833 10.6962C56.5751 10.6962 57.5604 10.9292 58.4391 11.3952C59.3178 11.8612 60.0102 12.5336 60.5161 13.4123C61.022 14.2778 61.275 15.283 61.275 16.428C61.275 17.573 61.0154 18.5849 60.4961 19.4636C59.9902 20.3291 59.2912 20.9948 58.3992 21.4608C57.5204 21.9268 56.5352 22.1598 55.4434 22.1598ZM55.4434 19.204C56.0958 19.204 56.6483 18.9644 57.101 18.4851C57.567 18.0057 57.8 17.3201 57.8 16.428C57.8 15.536 57.5737 14.8503 57.121 14.371C56.6816 13.8917 56.1357 13.652 55.4833 13.652C54.8176 13.652 54.2651 13.8917 53.8257 14.371C53.3864 14.837 53.1667 15.5226 53.1667 16.428C53.1667 17.3201 53.3797 18.0057 53.8058 18.4851C54.2451 18.9644 54.791 19.204 55.4434 19.204ZM66.5019 7.22124V22H63.0868V7.22124H66.5019ZM72.3919 7.22124V22H68.9768V7.22124H72.3919ZM76.5843 9.69768C75.9851 9.69768 75.4925 9.52459 75.1064 9.17843C74.7336 8.81894 74.5472 8.37957 74.5472 7.86032C74.5472 7.32775 74.7336 6.88838 75.1064 6.54221C75.4925 6.18273 75.9851 6.00299 76.5843 6.00299C77.1701 6.00299 77.6494 6.18273 78.0222 6.54221C78.4083 6.88838 78.6014 7.32775 78.6014 7.86032C78.6014 8.37957 78.4083 8.81894 78.0222 9.17843C77.6494 9.52459 77.1701 9.69768 76.5843 9.69768ZM78.2818 10.856V22H74.8667V10.856H78.2818ZM87.5469 10.7362C88.8517 10.7362 89.8902 11.1622 90.6625 12.0144C91.448 12.8531 91.8408 14.0115 91.8408 15.4894V22H88.4457V15.9487C88.4457 15.2031 88.2526 14.6239 87.8665 14.2112C87.4804 13.7985 86.9611 13.5921 86.3087 13.5921C85.6563 13.5921 85.1371 13.7985 84.751 14.2112C84.3649 14.6239 84.1718 15.2031 84.1718 15.9487V22H80.7567V10.856H84.1718V12.3339C84.518 11.8413 84.984 11.4552 85.5698 11.1756C86.1556 10.8826 86.8147 10.7362 87.5469 10.7362ZM98.4478 10.6962C99.2334 10.6962 99.9191 10.856 100.505 11.1756C101.104 11.4951 101.563 11.9145 101.883 12.4337V10.856H105.298V21.98C105.298 23.0052 105.092 23.9306 104.679 24.756C104.279 25.5948 103.66 26.2605 102.822 26.7532C101.996 27.2458 100.964 27.4921 99.726 27.4921C98.075 27.4921 96.737 27.0993 95.7118 26.3138C94.6866 25.5416 94.1008 24.4898 93.9543 23.1583H97.3295C97.436 23.5844 97.6889 23.9172 98.0884 24.1569C98.4878 24.4099 98.9804 24.5364 99.5662 24.5364C100.272 24.5364 100.831 24.33 101.244 23.9172C101.67 23.5178 101.883 22.8721 101.883 21.98V20.4023C101.55 20.9215 101.091 21.3476 100.505 21.6805C99.9191 22 99.2334 22.1598 98.4478 22.1598C97.5292 22.1598 96.697 21.9268 95.9514 21.4608C95.2058 20.9815 94.6134 20.3091 94.174 19.4437C93.7479 18.5649 93.5349 17.5531 93.5349 16.408C93.5349 15.263 93.7479 14.2578 94.174 13.3924C94.6134 12.5269 95.2058 11.8612 95.9514 11.3952C96.697 10.9292 97.5292 10.6962 98.4478 10.6962ZM101.883 16.428C101.883 15.5759 101.643 14.9035 101.164 14.4109C100.698 13.9183 100.125 13.672 99.4464 13.672C98.7674 13.672 98.1882 13.9183 97.7089 14.4109C97.2429 14.8902 97.0099 15.5559 97.0099 16.408C97.0099 17.2601 97.2429 17.9392 97.7089 18.4451C98.1882 18.9377 98.7674 19.184 99.4464 19.184C100.125 19.184 100.698 18.9377 101.164 18.4451C101.643 17.9525 101.883 17.2801 101.883 16.428Z" fill="#4A494F"/>
</svg>
