<svg width="122" height="40" viewBox="0 0 122 40" fill="none" xmlns="http://www.w3.org/2000/svg">
<path d="M52.4334 14.375V28.2969H51.1991V14.375H52.4334ZM41.4959 20.2969C41.5037 17.3438 42.9725 15.4609 45.0428 15.4531C47.1053 15.4609 48.5975 17.3438 48.5897 20.2969C48.5975 23.2578 47.1053 25.1328 45.0428 25.125C42.9725 25.1328 41.5037 23.2578 41.4959 20.2969ZM42.6834 20.2969C42.6834 22.5547 43.6522 24.0391 45.0428 24.0312C46.4412 24.0391 47.4022 22.5547 47.4022 20.2969C47.4022 18.0391 46.4412 16.5547 45.0428 16.5469C43.6522 16.5547 42.6834 18.0391 42.6834 20.2969ZM61.8828 15.75V24.7812H55.4609V15.75H61.8828ZM56.6641 23.7812H60.6797V16.7344H56.6641V23.7812ZM64.8672 28.2969V14.375H66.1016V28.2969H64.8672ZM73.2853 18.6406C73.2931 21 75.0041 23.3984 77.0509 24.2812L76.3634 25.25C74.7384 24.5156 73.34 22.9141 72.6916 20.9922C72.0431 23.0312 70.6369 24.7969 69.0509 25.5938L68.3166 24.625C70.3088 23.6719 72.0431 21.0469 72.0509 18.6406V16.8281H68.7697V15.8125H76.5978V16.8281H73.2853V18.6406ZM78.5353 28.2656V14.375H79.7697V28.2656H78.5353Z" fill="#181818"/>
</svg>
