<svg width="20" height="20" viewBox="0 0 20 20" fill="none" xmlns="http://www.w3.org/2000/svg">
<path fill-rule="evenodd" clip-rule="evenodd" d="M9.64759 1.20895C9.84285 1.01368 10.1594 1.01368 10.3547 1.20895L14.1047 4.95895C14.3 5.15421 14.3 5.47079 14.1047 5.66605C13.9094 5.86132 13.5928 5.86132 13.3976 5.66605L10.501 2.76944V10.9375C10.501 11.2136 10.2771 11.4375 10.001 11.4375C9.72483 11.4375 9.50098 11.2136 9.50098 10.9375V2.76977L6.60469 5.66605C6.40943 5.86132 6.09285 5.86132 5.89759 5.66605C5.70232 5.47079 5.70232 5.15421 5.89759 4.95895L9.64759 1.20895ZM3.43848 9.45833C3.19685 9.45833 3.00098 9.65421 3.00098 9.89583V17.5C3.00098 17.7416 3.19685 17.9375 3.43848 17.9375H16.5635C16.8051 17.9375 17.001 17.7416 17.001 17.5V9.89583C17.001 9.65421 16.8051 9.45833 16.5635 9.45833H14.6885C14.4123 9.45833 14.1885 9.23448 14.1885 8.95833C14.1885 8.68219 14.4123 8.45833 14.6885 8.45833H16.5635C17.3574 8.45833 18.001 9.10192 18.001 9.89583V17.5C18.001 18.2939 17.3574 18.9375 16.5635 18.9375H3.43848C2.64457 18.9375 2.00098 18.2939 2.00098 17.5V9.89583C2.00098 9.10192 2.64457 8.45833 3.43848 8.45833H5.31348C5.58962 8.45833 5.81348 8.68219 5.81348 8.95833C5.81348 9.23448 5.58962 9.45833 5.31348 9.45833H3.43848Z" fill="#101010"/>
</svg>
