<svg width="122" height="40" viewBox="0 0 122 40" fill="none" xmlns="http://www.w3.org/2000/svg">
<rect x="1" y="1" width="120" height="38" rx="5" fill="white"/>
<rect x="1" y="1" width="120" height="38" rx="5" stroke="#9935FF" stroke-width="2"/>
<path d="M52.7459 13.2188V27.4688H50.7303V13.2188H52.7459ZM41.2616 19.2812C41.2537 16.1797 42.8397 14.2188 45.0272 14.2188C47.1678 14.2188 48.7616 16.1797 48.7616 19.2812C48.7616 22.4062 47.1678 24.3594 45.0272 24.3594C42.8397 24.3594 41.2537 22.4062 41.2616 19.2812ZM43.1834 19.2812C43.1756 21.3984 43.9178 22.5547 45.0272 22.5469C46.1053 22.5547 46.8319 21.3984 46.8397 19.2812C46.8319 17.1719 46.1053 16.0156 45.0272 16.0156C43.9178 16.0156 43.1756 17.1719 43.1834 19.2812ZM62.0859 14.5V24.0469H55.2109V14.5H62.0859ZM57.2109 22.4688H60.1484V16.0625H57.2109V22.4688ZM64.3984 27.4688V13.2188H66.4141V27.4688H64.3984ZM73.6916 17.0938C73.6838 19.3906 74.8713 21.8516 77.2541 22.8438L76.1759 24.4062C74.5041 23.6953 73.3478 22.2812 72.7072 20.5625C72.0666 22.4297 70.8869 23.9922 69.2072 24.7656L68.0666 23.1875C70.4259 22.1328 71.6447 19.5 71.6447 17.0938V16.2188H68.6291V14.5938H76.6603V16.2188H73.6916V17.0938ZM78.0666 27.4375V13.2188H80.0822V27.4375H78.0666Z" fill="#861DEE"/>
</svg>
