<svg width="122" height="40" viewBox="0 0 122 40" fill="none" xmlns="http://www.w3.org/2000/svg">
<path d="M55.0019 15.0625C54.9941 18.5469 52.9862 20.8906 48.6737 22.0312L48.2206 21.0625C50.5487 20.4688 52.0566 19.5312 52.8925 18.3281L48.3612 18.6562L48.1581 17.6719L53.3769 17.4375C53.5566 17 53.6581 16.5391 53.705 16.0469H48.8612V15.0625H55.0019ZM50.33 23.1875V22.2031H59.33V25.5312H51.5644V27.0938H59.7987V28.0781H50.3612V24.6094H58.1112V23.1875H50.33ZM55.0487 18.75V17.7344H58.0956V14.375H59.33V21.5781H58.0956V18.75H55.0487ZM72.9825 14.375V28.2969H71.7637V20.75H69.0606V19.7188H71.7637V14.375H72.9825ZM61.9669 16.6875V15.6719H68.2169V20.5312H63.2325V23.9062C65.6309 23.9062 67.3653 23.8281 69.3887 23.4531L69.4825 24.4844C67.3966 24.8594 65.5919 24.9453 63.0762 24.9531H62.0137V19.5156H67.0294V16.6875H61.9669Z" fill="#181818"/>
</svg>
